<?xml version="1.0" encoding="utf-8"?>
<!-- Generator: Adobe Illustrator 26.0.0, SVG Export Plug-In . SVG Version: 6.00 Build 0)  -->
<svg version="1.1" id="Layer_1" xmlns="http://www.w3.org/2000/svg" xmlns:xlink="http://www.w3.org/1999/xlink" x="0px" y="0px"
	 viewBox="0 0 338.5 118.9" style="enable-background:new 0 0 338.5 118.9;" xml:space="preserve">
<style type="text/css">
	.st0{fill:url(#SVGID_1_);}
	.st1{fill:url(#SVGID_00000012436885568621772050000002507503662137616289_);}
	.st2{fill:url(#SVGID_00000013151247101808324740000013578784502919170464_);}
	.st3{fill:url(#SVGID_00000044165613945842028280000007553656298022333623_);}
	.st4{fill:url(#SVGID_00000107580402796387339940000008142800413564349870_);}
	.st5{fill:url(#SVGID_00000071550847226730123580000007654287961609880201_);}
	.st6{fill:url(#SVGID_00000052800818424777700200000010831634017444795546_);}
	.st7{fill:url(#SVGID_00000059269467730681964120000006859431400305166521_);}
	.st8{fill:url(#SVGID_00000000943799811684560110000004236560907878056071_);}
	.st9{fill:url(#SVGID_00000049184873881126389020000006360474302775277965_);}
	.st10{fill:url(#SVGID_00000072252785861244501690000012738777123377165480_);}
	.st11{fill:url(#SVGID_00000119101792841615730200000012783547979949169850_);}
	.st12{fill:url(#SVGID_00000042711300450614056350000010268183955880516260_);}
</style>
<g id="Layer_2_00000121267482869677753310000015090785938432132029_">
	<g id="Layer_1-2">
		
			<linearGradient id="SVGID_1_" gradientUnits="userSpaceOnUse" x1="362.4205" y1="-53.1689" x2="-100.3495" y2="139.3611" gradientTransform="matrix(1 0 0 -1 0 119.89)">
			<stop  offset="0" style="stop-color:#D4BA9B"/>
			<stop  offset="1" style="stop-color:#E1D5C5"/>
		</linearGradient>
		<path class="st0" d="M38.3,0c5.1,0,10.2,1,14.8,3c9.2,3.9,16.5,11.2,20.4,20.4c2,4.7,3,9.7,3,14.8c0,5.1-1,10.1-3,14.8
			c-3.9,9.2-11.2,16.5-20.4,20.4c-4.7,2-9.7,3-14.9,3c-5.1,0-10.2-1-14.9-3C14.2,69.5,6.9,62.2,3,53c-2-4.7-3-9.7-3-14.8
			c0-5.1,1-10.1,3-14.8C6.9,14.2,14.2,6.9,23.4,3C28.1,1,33.2,0,38.3,0z M42.5,73.3c3.4,0,6.8-0.7,9.9-2c3-1.3,5.8-3.2,8-5.7
			c2.4-2.6,4.2-5.7,5.3-9c1.3-3.8,2-7.8,1.9-11.8c0-5.7-1-11.4-3-16.7c-1.8-4.9-4.5-9.4-7.8-13.4c-3-3.6-6.7-6.6-10.9-8.8
			c-3.7-2-7.8-3.2-12.1-3.2c-3.4,0-6.8,0.7-9.9,2.1c-3,1.4-5.8,3.4-8,5.9c-2.3,2.6-4.1,5.7-5.3,9c-1.3,3.6-2,7.5-1.9,11.4
			c-0.1,6.1,0.9,12.2,3,18c1.8,4.9,4.4,9.3,7.8,13.2c3,3.4,6.7,6.2,10.9,8.1C34.2,72.3,38.4,73.3,42.5,73.3z"/>
		
			<linearGradient id="SVGID_00000020395519695851736940000003131737007849588660_" gradientUnits="userSpaceOnUse" x1="371.9303" y1="-30.3093" x2="-90.8297" y2="162.2307" gradientTransform="matrix(1 0 0 -1 0 119.89)">
			<stop  offset="0" style="stop-color:#D4BA9B"/>
			<stop  offset="1" style="stop-color:#E1D5C5"/>
		</linearGradient>
		<path style="fill:url(#SVGID_00000020395519695851736940000003131737007849588660_);" d="M132.8,73.1c1.5,0,3-0.5,4.1-1.5
			c1.4-1,2.6-2.3,3.5-3.7h0.4c-1.4,2.3-3.3,4.3-5.4,6c-2,1.6-4.5,2.5-7.1,2.5c-1.9,0-3.7-0.4-5.4-1.2c-1.5-0.7-2.8-1.8-3.8-3.1
			c-1-1.3-1.7-2.7-2.2-4.3c-0.5-1.5-0.7-3.1-0.7-4.7c0-4.1,1-8.2,2.9-11.8c1.9-3.6,4.1-7,6.4-10.3c2.4-3.3,4.5-6.8,6.4-10.4
			c2-3.9,2.9-8.2,2.8-12.5c0-2.2-0.3-4.3-1-6.3c-0.7-2-1.8-3.8-3.2-5.3c-1.6-1.6-3.5-2.8-5.6-3.5c-2.6-0.9-5.4-1.3-8.2-1.3
			c-3.3,0-6.5,0.8-9.3,2.5c-3,1.8-5.5,4.1-7.5,7c-2.3,3.2-4,6.7-5.2,10.4c-1.4,4.3-2.2,8.7-2.4,13.2v32.5c-0.1,1.6,0.3,3.3,1.1,4.7
			c0.7,1.2,2,1.9,3.3,1.8v0.7H78.8v-0.7c1.4,0.1,2.7-0.6,3.4-1.8c0.8-1.4,1.2-3.1,1.1-4.7V14.7c0.1-1.6-0.3-3.3-1.1-4.7
			c-0.7-1.2-2-1.9-3.4-1.8V7.5l13.4-5.6v14.3c2.3-5.6,5.4-9.7,9.3-12.3S110.3,0,116.2,0c3.5-0.1,6.9,0.6,10.2,1.9
			c5.8,2.3,10.4,7,12.7,12.8c1.2,3,1.8,6.2,1.7,9.5c0,3.8-0.8,7.5-2.5,10.8c-1.6,3.3-3.5,6.5-5.5,9.6c-2,3.1-3.8,6.2-5.5,9.3
			c-1.6,3.1-2.5,6.5-2.5,10c-0.1,2.4,0.7,4.8,2.2,6.6C128.5,72.2,130.6,73.1,132.8,73.1z"/>
		
			<linearGradient id="SVGID_00000111887769873688372110000017234438803620588474_" gradientUnits="userSpaceOnUse" x1="383.9824" y1="-1.3442" x2="-78.7876" y2="191.1958" gradientTransform="matrix(1 0 0 -1 0 119.89)">
			<stop  offset="0" style="stop-color:#D4BA9B"/>
			<stop  offset="1" style="stop-color:#E1D5C5"/>
		</linearGradient>
		<path style="fill:url(#SVGID_00000111887769873688372110000017234438803620588474_);" d="M184.4,0c5.1,0,10.2,1,14.9,3
			c9.2,3.9,16.5,11.2,20.4,20.4c2,4.7,3,9.7,3,14.8c0,5.1-1,10.1-3,14.8c-3.9,9.2-11.2,16.5-20.4,20.4c-9.5,4-20.2,4-29.7,0
			c-9.2-3.9-16.5-11.2-20.4-20.4c-2-4.7-3-9.7-3-14.8c0-5.1,1-10.1,3-14.8c3.9-9.2,11.2-16.5,20.4-20.3C174.2,1,179.3,0,184.4,0z
			 M188.7,73.3c3.4,0,6.8-0.7,9.9-2c3-1.3,5.8-3.2,8-5.7c2.4-2.6,4.2-5.7,5.3-9c1.3-3.8,2-7.8,1.9-11.8c0-5.7-1-11.4-3-16.7
			c-1.8-4.9-4.5-9.4-7.8-13.4c-3-3.6-6.7-6.6-10.9-8.9c-3.7-2-7.8-3.2-12.1-3.2c-3.4,0-6.8,0.7-9.9,2.1c-3,1.4-5.8,3.4-8,5.9
			c-2.3,2.6-4.1,5.7-5.3,9c-1.3,3.6-2,7.5-1.9,11.4c-0.1,6.1,0.9,12.2,3,18c1.8,4.9,4.4,9.3,7.8,13.2c3,3.4,6.7,6.2,10.9,8.1
			C180.4,72.3,184.5,73.3,188.7,73.3L188.7,73.3z"/>
		
			<linearGradient id="SVGID_00000015329046555460782700000000197878375948865959_" gradientUnits="userSpaceOnUse" x1="392.7642" y1="19.766" x2="-70.0058" y2="212.2959" gradientTransform="matrix(1 0 0 -1 0 119.89)">
			<stop  offset="0" style="stop-color:#D4BA9B"/>
			<stop  offset="1" style="stop-color:#E1D5C5"/>
		</linearGradient>
		<path style="fill:url(#SVGID_00000015329046555460782700000000197878375948865959_);" d="M253,0c4.1-0.2,8.2,0.7,11.9,2.5
			c2.8,1.3,4.9,3.6,6.1,6.5c-0.7,1-1.4,1.9-2.3,2.8c-0.7,0.7-1.6,1.4-2.5,1.9c-0.9,0.6-1.9,0.9-2.9,0.9c-1.2-0.1-2.3-0.8-2.8-2
			c-0.7-1.3-1.5-2.8-2.3-4.5c-0.8-1.6-1.8-3.1-3.1-4.5c-1.4-1.4-3.3-2.1-5.2-2c-1.7,0-3.7,1-6.1,3.1c-2.7,2.4-4.9,5.4-6.4,8.7v53.8
			c-0.1,1.6,0.3,3.3,1.1,4.7c0.7,1.2,2,1.9,3.3,1.8v0.7h-17.8v-0.7c1.4,0.1,2.7-0.6,3.4-1.8c0.8-1.4,1.2-3.1,1.1-4.7V14.7
			c0.1-1.6-0.3-3.3-1.1-4.7c-0.7-1.2-2-1.9-3.4-1.8V7.5l13.4-5.6v7.5c1.7-2.7,3.9-5,6.5-6.8C246.7,0.8,249.8-0.1,253,0z"/>
		
			<linearGradient id="SVGID_00000049940237661593749750000013019197320975651252_" gradientUnits="userSpaceOnUse" x1="401.2253" y1="40.0987" x2="-61.5447" y2="232.6286" gradientTransform="matrix(1 0 0 -1 0 119.89)">
			<stop  offset="0" style="stop-color:#D4BA9B"/>
			<stop  offset="1" style="stop-color:#E1D5C5"/>
		</linearGradient>
		<path style="fill:url(#SVGID_00000049940237661593749750000013019197320975651252_);" d="M338.5,66c-1.3,2.2-2.9,4.2-4.7,5.9
			c-1.7,1.7-4,2.5-6.4,2.5c-6.1,0.1-11.4-3.9-13-9.8c-2.5,3.4-5.8,6.3-9.5,8.5c-3.8,2.2-8.1,3.3-12.4,3.3c-2.8,0-5.5-0.4-8.2-1.1
			c-2.7-0.7-5.3-1.9-7.6-3.5c-2.3-1.6-4.2-3.7-5.6-6.1c-1.5-2.7-2.3-5.7-2.2-8.8c-0.1-3.3,0.8-6.5,2.5-9.3c1.7-2.7,3.9-5,6.5-6.9
			c2.9-2.1,6-3.8,9.2-5.1c3.4-1.4,6.9-2.8,10.5-4c3.6-1.2,7.1-2.4,10.6-3.6c3.1-1,6.2-2.3,9.1-3.8c2.4-1.2,4.6-2.8,6.5-4.7
			c1.6-1.7,2.5-3.9,2.5-6.2c0-1.5-0.4-2.9-1-4.3c-0.7-1.5-1.7-2.8-3-3.8c-1.5-1.2-3.1-2.1-4.9-2.7c-2.1-0.7-4.3-1-6.5-1
			c-3.4-0.1-6.7,0.8-9.5,2.7c-2.4,1.7-4.6,3.7-6.5,6c-1.8,2.2-3.5,4.2-5.1,5.9c-1.3,1.6-3.2,2.6-5.3,2.7c-1,0-2-0.3-2.8-0.9
			c-0.9-0.6-1.7-1.3-2.4-2c-0.9-0.9-1.6-1.9-2.3-2.9c1.7-1.9,3.6-3.6,5.8-5.1c2.5-1.7,5.1-3.1,7.9-4.1c3.1-1.2,6.2-2.1,9.4-2.8
			c3.4-0.7,6.8-1,10.2-1c2.7,0,5.4,0.3,8,1.1c2.3,0.6,4.5,1.7,6.5,3.1c1.8,1.3,3.2,2.9,4.3,4.9c1,1.9,1.5,4,1.5,6.1
			c0.1,3.4-1.3,6.6-3.8,8.9c-2.8,2.6-6.1,4.7-9.5,6.3c-3.8,1.8-7.9,3.5-12.3,5.1c-4.3,1.5-8.4,3.4-12.4,5.5
			c-3.6,1.9-6.8,4.4-9.5,7.3c-2.6,2.9-3.9,6.6-3.8,10.5c-0.1,2.5,0.4,4.9,1.5,7.1c1.8,3.7,5,6.6,8.9,8c1.7,0.6,3.5,0.9,5.3,0.9
			c2.9,0.1,5.8-0.9,8.1-2.7c2.4-1.9,4.4-4.2,6.1-6.7c1.9-2.8,3.5-5.8,5-8.8c1.5-3,3.1-6,4.9-8.8c1.5-2.5,3.4-4.8,5.6-6.8
			c2-1.8,4.6-2.8,7.4-2.7c-1.3,1.1-2.5,2.3-3.4,3.8c-1.1,1.6-2,3.3-2.7,5.1c-0.8,1.9-1.4,3.9-1.8,6c-0.4,2.1-0.7,4.2-0.7,6.3
			c0,1.4,0.2,2.7,0.5,4.1c0.3,1.3,0.7,2.6,1.4,3.7c0.6,1.1,1.3,2,2.3,2.8c0.8,0.7,1.9,1.1,2.9,1.1c1.5,0,3-0.5,4.2-1.4
			c1.3-1,2.5-2.3,3.4-3.7H338.5z"/>
		
			<linearGradient id="SVGID_00000065044863697152747860000004685978002467916180_" gradientUnits="userSpaceOnUse" x1="345.991" y1="-92.6557" x2="-116.769" y2="99.8843" gradientTransform="matrix(1 0 0 -1 0 119.89)">
			<stop  offset="0" style="stop-color:#D4BA9B"/>
			<stop  offset="1" style="stop-color:#E1D5C5"/>
		</linearGradient>
		<path style="fill:url(#SVGID_00000065044863697152747860000004685978002467916180_);" d="M100.4,110.3c0,1.3-0.6,2.4-1.7,3.1
			c-1.4,0.8-3,1.1-4.6,1.1c-0.5,0-1.6,0-3.2-0.1c0.1-2.1,0.1-4.5,0.1-7c0-2.4,0-4.5-0.1-6.4h1.2h1.4c0.7,0,1.3,0,1.6,0
			c2.9,0,4.3,1,4.3,3c0.1,1.4-0.7,2.6-2,3.1v0.1C99.1,107.3,100.4,108.6,100.4,110.3z M97.8,104.3c0-1.4-1-2.1-2.9-2.1
			c-0.8,0-1.6,0-2.3,0.2c0.1,0.5,0.1,1.9,0.1,4.2h1.1c1,0.1,2-0.1,3-0.5C97.4,105.8,97.8,105.1,97.8,104.3z M98.6,110.4
			c0-1.7-1.5-2.5-4.5-2.5c-0.6,0-1,0-1.4,0.1c0,1.8,0,3.5,0.1,4.9c1.7,0.2,3.3,0,4.9-0.6C98.3,111.9,98.7,111.2,98.6,110.4z"/>
		
			<linearGradient id="SVGID_00000153681136181409391610000015240160778892110230_" gradientUnits="userSpaceOnUse" x1="349.3096" y1="-84.671" x2="-113.4504" y2="107.859" gradientTransform="matrix(1 0 0 -1 0 119.89)">
			<stop  offset="0" style="stop-color:#D4BA9B"/>
			<stop  offset="1" style="stop-color:#E1D5C5"/>
		</linearGradient>
		<path style="fill:url(#SVGID_00000153681136181409391610000015240160778892110230_);" d="M122.8,107.4c0.1,2-0.6,3.9-2,5.3
			c-1.2,1.3-2.8,2-4.5,2c-1.6,0-3.2-0.7-4.3-1.8c-1.3-1.3-1.9-3.1-1.8-4.9c-0.1-2,0.6-3.9,2-5.3c1.2-1.3,2.8-2,4.5-2
			c1.6,0,3.2,0.7,4.3,1.8C122.2,103.8,122.9,105.6,122.8,107.4z M121,107.7c0.1-1.5-0.4-3-1.4-4.1c-0.8-0.9-2-1.5-3.2-1.5
			c-1.2,0-2.3,0.6-3,1.5c-0.9,1.2-1.4,2.6-1.3,4.1c-0.1,1.5,0.4,3,1.4,4.1c0.8,0.9,2,1.4,3.2,1.4c1.2,0,2.3-0.6,3-1.6
			C120.6,110.6,121.1,109.1,121,107.7L121,107.7z"/>
		
			<linearGradient id="SVGID_00000112597531523738014140000018131443381876085940_" gradientUnits="userSpaceOnUse" x1="352.8705" y1="-76.1087" x2="-109.8895" y2="116.4213" gradientTransform="matrix(1 0 0 -1 0 119.89)">
			<stop  offset="0" style="stop-color:#D4BA9B"/>
			<stop  offset="1" style="stop-color:#E1D5C5"/>
		</linearGradient>
		<path style="fill:url(#SVGID_00000112597531523738014140000018131443381876085940_);" d="M144.3,100.9c0,1.3,0,2.5-0.1,3.6
			s0,2.2,0,3.2c0,4.6-1.8,6.9-5.4,6.9c-0.8,0-1.7-0.1-2.4-0.4c-0.7-0.3-1.2-0.7-1.7-1.2c-0.5-0.6-0.8-1.3-1-2.1c-0.2-1-0.3-2-0.3-3
			c0-1,0-2.1,0-3.2s0-2.4-0.1-3.7h2c-0.1,2.6-0.1,4.7-0.1,6.1c0,1,0,2,0.2,2.9c0.1,0.7,0.3,1.3,0.6,1.9c0.2,0.5,0.6,0.9,1.1,1.1
			c0.5,0.2,1.1,0.3,1.7,0.3c0.6,0,1.2-0.1,1.8-0.3c0.5-0.2,0.9-0.6,1.1-1c0.3-0.6,0.5-1.2,0.6-1.9c0.1-1,0.2-2,0.2-3
			c0-0.7,0-1.6,0-2.6s-0.1-2.2-0.1-3.5L144.3,100.9z"/>
		
			<linearGradient id="SVGID_00000165226979198946753770000002440461851651239101_" gradientUnits="userSpaceOnUse" x1="355.9597" y1="-68.7067" x2="-106.8104" y2="123.8332" gradientTransform="matrix(1 0 0 -1 0 119.89)">
			<stop  offset="0" style="stop-color:#D4BA9B"/>
			<stop  offset="1" style="stop-color:#E1D5C5"/>
		</linearGradient>
		<path style="fill:url(#SVGID_00000165226979198946753770000002440461851651239101_);" d="M164.3,100.9l-0.1,1.4
			c-1.4-0.1-2.8-0.1-4.2-0.1c0,1.3,0,3,0,5c0,2.2,0,4.6,0.1,7h-1.9c0.1-2.3,0.1-4.7,0.1-7c0-2,0-3.7-0.1-5c-1,0-2.4,0-4.3,0.1
			l0.1-1.5H164.3z"/>
		
			<linearGradient id="SVGID_00000154412377337625144780000009244814787809768372_" gradientUnits="userSpaceOnUse" x1="358.0005" y1="-63.7929" x2="-104.7695" y2="128.7371" gradientTransform="matrix(1 0 0 -1 0 119.89)">
			<stop  offset="0" style="stop-color:#D4BA9B"/>
			<stop  offset="1" style="stop-color:#E1D5C5"/>
		</linearGradient>
		<path style="fill:url(#SVGID_00000154412377337625144780000009244814787809768372_);" d="M176.3,114.3h-2c0.1-2.2,0.1-4.6,0.1-7
			s-0.1-4.6-0.1-6.4h2c-0.1,1.9-0.1,4-0.1,6.4C176.1,109.8,176.2,112.1,176.3,114.3z"/>
		
			<linearGradient id="SVGID_00000010268850061897581380000009680060281155156875_" gradientUnits="userSpaceOnUse" x1="360.3617" y1="-58.1158" x2="-102.4083" y2="134.4141" gradientTransform="matrix(1 0 0 -1 0 119.89)">
			<stop  offset="0" style="stop-color:#D4BA9B"/>
			<stop  offset="1" style="stop-color:#E1D5C5"/>
		</linearGradient>
		<path style="fill:url(#SVGID_00000010268850061897581380000009680060281155156875_);" d="M200,118.8l-1.9,0.1
			c-0.4-1.9-0.9-3.1-1.5-3.5c-1-0.5-2.2-0.7-3.4-0.6c-1.6,0-3.1-0.6-4.2-1.7c-1.4-1.3-2.1-3.2-2-5.1c-0.1-2,0.7-4,2.1-5.5
			c1.1-1.2,2.7-1.8,4.4-1.8c1.6,0,3.1,0.6,4.2,1.7c1.4,1.3,2.1,3.2,2,5.1c0,1.4-0.3,2.9-1,4.1c-0.6,1-1.5,1.9-2.5,2.4v0.1
			c0.9,0,1.8,0.4,2.5,1.1C199.3,116.3,199.8,117.5,200,118.8z M197.8,107.7c0.1-1.6-0.5-3.1-1.5-4.2c-0.8-0.9-1.9-1.3-3.1-1.3
			c-1.1,0-2.2,0.6-2.9,1.4c-1,1.2-1.5,2.7-1.4,4.2c-0.1,1.6,0.5,3.1,1.5,4.2c0.8,0.9,1.9,1.3,3.1,1.3c1.1,0,2.2-0.6,2.9-1.5
			C197.4,110.7,197.9,109.2,197.8,107.7L197.8,107.7z"/>
		
			<linearGradient id="SVGID_00000137811697924323942370000002399278666269799852_" gradientUnits="userSpaceOnUse" x1="364.2101" y1="-48.8696" x2="-98.5598" y2="143.6603" gradientTransform="matrix(1 0 0 -1 0 119.89)">
			<stop  offset="0" style="stop-color:#D4BA9B"/>
			<stop  offset="1" style="stop-color:#E1D5C5"/>
		</linearGradient>
		<path style="fill:url(#SVGID_00000137811697924323942370000002399278666269799852_);" d="M221.1,100.9c0,1.3,0,2.5-0.1,3.6
			s0,2.2,0,3.2c0,4.6-1.8,6.9-5.4,6.9c-0.8,0-1.7-0.1-2.4-0.4c-0.7-0.3-1.2-0.7-1.7-1.2c-0.5-0.6-0.8-1.3-1-2.1c-0.2-1-0.3-2-0.3-3
			c0-1,0-2.1,0-3.2s0-2.4-0.1-3.7h2c-0.1,2.6-0.1,4.7-0.1,6.1c0,1,0,2,0.2,2.9c0.1,0.7,0.3,1.3,0.6,1.9c0.3,0.5,0.7,0.8,1.1,1.1
			c0.5,0.2,1.1,0.3,1.7,0.3c0.6,0,1.2-0.1,1.8-0.3c0.5-0.2,0.9-0.6,1.1-1c0.3-0.6,0.5-1.2,0.6-1.9c0.1-1,0.2-2,0.2-3
			c0-0.7,0-1.6,0-2.6s-0.1-2.2-0.1-3.5L221.1,100.9z"/>
		
			<linearGradient id="SVGID_00000013892579367519278430000015583163898576199606_" gradientUnits="userSpaceOnUse" x1="367.0329" y1="-42.0871" x2="-95.7371" y2="150.4429" gradientTransform="matrix(1 0 0 -1 0 119.89)">
			<stop  offset="0" style="stop-color:#D4BA9B"/>
			<stop  offset="1" style="stop-color:#E1D5C5"/>
		</linearGradient>
		<path style="fill:url(#SVGID_00000013892579367519278430000015583163898576199606_);" d="M240.9,112.8l-0.1,1.6h-8.3
			c0.1-2.1,0.1-4.5,0.1-7c0-2.4,0-4.5-0.1-6.4h7.8l-0.1,1.5c-1.9-0.1-3.9-0.1-6-0.1c0,1.1,0.1,2.5,0.1,4.3c1.8,0,3.4,0,4.9-0.1v1.5
			c-1.5-0.1-3.1-0.1-4.9-0.1c0,1.8,0,3.4,0.1,5C236.7,113,238.9,112.9,240.9,112.8z"/>
	</g>
</g>
</svg>
